<svg width="35" height="26" viewBox="0 0 35 26" fill="none" xmlns="http://www.w3.org/2000/svg">
<path fill-rule="evenodd" clip-rule="evenodd" d="M8.98409 4.651C9.18724 4.4479 9.46274 4.3338 9.75 4.3338C10.0373 4.3338 10.3128 4.4479 10.5159 4.651L18.0993 12.2347C18.3023 12.4379 18.4164 12.7134 18.4164 13.0007C18.4164 13.2879 18.3023 13.5635 18.0993 13.7666L10.5159 21.3503C10.3116 21.5477 10.0379 21.6569 9.7539 21.6544C9.46986 21.6519 9.19814 21.538 8.99728 21.3371C8.79642 21.1363 8.68249 20.8645 8.68002 20.5805C8.67755 20.2964 8.78675 20.0228 8.98409 19.8184L15.8015 13.0007L8.98409 6.18291C8.78099 5.97975 8.6669 5.70423 8.6669 5.41696C8.6669 5.12968 8.78099 4.85417 8.98409 4.651Z" fill="#1D6731"/>
<path fill-rule="evenodd" clip-rule="evenodd" d="M17.9841 4.651C18.1872 4.4479 18.4627 4.3338 18.75 4.3338C19.0373 4.3338 19.3128 4.4479 19.5159 4.651L27.0993 12.2347C27.3023 12.4379 27.4164 12.7134 27.4164 13.0007C27.4164 13.2879 27.3023 13.5635 27.0993 13.7666L19.5159 21.3503C19.3116 21.5477 19.0379 21.6569 18.7539 21.6544C18.4699 21.6519 18.1981 21.538 17.9973 21.3371C17.7964 21.1363 17.6825 20.8645 17.68 20.5805C17.6776 20.2964 17.7867 20.0228 17.9841 19.8184L24.8015 13.0007L17.9841 6.18291C17.781 5.97975 17.6669 5.70423 17.6669 5.41696C17.6669 5.12968 17.781 4.85417 17.9841 4.651Z" fill="#1D6731"/>
</svg>
