<svg width="35" height="26" viewBox="0 0 35 26" fill="none" xmlns="http://www.w3.org/2000/svg">
<path fill-rule="evenodd" clip-rule="evenodd" d="M8.98409 4.65094C9.18724 4.44784 9.46274 4.33374 9.75 4.33374C10.0373 4.33374 10.3128 4.44784 10.5159 4.65094L18.0993 12.2347C18.3023 12.4378 18.4164 12.7133 18.4164 13.0006C18.4164 13.2879 18.3023 13.5634 18.0993 13.7666L10.5159 21.3503C10.3116 21.5476 10.0379 21.6568 9.7539 21.6544C9.46986 21.6519 9.19814 21.5379 8.99728 21.3371C8.79642 21.1362 8.68249 20.8645 8.68002 20.5804C8.67755 20.2964 8.78675 20.0227 8.98409 19.8184L15.8015 13.0006L8.98409 6.18285C8.78099 5.97969 8.6669 5.70417 8.6669 5.4169C8.6669 5.12962 8.78099 4.85411 8.98409 4.65094Z" fill="black"/>
<path fill-rule="evenodd" clip-rule="evenodd" d="M17.9841 4.65094C18.1872 4.44784 18.4627 4.33374 18.75 4.33374C19.0373 4.33374 19.3128 4.44784 19.5159 4.65094L27.0993 12.2347C27.3023 12.4378 27.4164 12.7133 27.4164 13.0006C27.4164 13.2879 27.3023 13.5634 27.0993 13.7666L19.5159 21.3503C19.3116 21.5476 19.0379 21.6568 18.7539 21.6544C18.4699 21.6519 18.1981 21.5379 17.9973 21.3371C17.7964 21.1362 17.6825 20.8645 17.68 20.5804C17.6776 20.2964 17.7867 20.0227 17.9841 19.8184L24.8015 13.0006L17.9841 6.18285C17.781 5.97969 17.6669 5.70417 17.6669 5.4169C17.6669 5.12962 17.781 4.85411 17.9841 4.65094Z" fill="black"/>
</svg>
