<svg width="26" height="34" viewBox="0 0 26 34" fill="none" xmlns="http://www.w3.org/2000/svg">
<path d="M24.9705 8.92333L16.2783 0.231132C16.1303 0.0831713 15.9294 0 15.72 0H2.42613C1.783 0.000483567 1.1663 0.256272 0.711269 0.71127C0.256501 1.16604 0.000742711 1.78275 0 2.42613V31.2613C0.000725257 31.9044 0.256513 32.5211 0.711269 32.9761C1.16628 33.4309 1.783 33.6867 2.42613 33.6874H22.7764C23.4195 33.6867 24.0362 33.4309 24.4913 32.9761C24.946 32.5211 25.2018 31.9044 25.2025 31.2613V9.48189C25.2023 9.27252 25.1187 9.07129 24.9705 8.92333ZM16.5098 2.6957L22.5063 8.69228H16.5098V2.6957ZM22.7764 32.1077H2.4261C1.95828 32.1077 1.57891 31.7283 1.57891 31.2605V2.42535C1.57891 1.95753 1.95824 1.57816 2.4261 1.57816H14.9309V9.48123C14.9309 9.6906 15.014 9.89151 15.1622 10.0395C15.3102 10.1877 15.5111 10.2708 15.7205 10.2708H23.6229V31.2592C23.6234 31.4841 23.5342 31.7 23.3754 31.8591C23.2165 32.0182 23.0012 32.1077 22.7764 32.1077ZM17.1006 21.8713C17.2488 22.0195 17.332 22.2204 17.332 22.4297C17.332 22.6391 17.2488 22.84 17.1006 22.9882L13.1598 26.9291C12.8513 27.2371 12.3514 27.2371 12.0428 26.9291L8.10202 22.9882C7.80392 22.678 7.80875 22.1863 8.1129 21.8821C8.41705 21.578 8.90878 21.5732 9.21898 21.8713L11.812 24.4647V13.6849C11.812 13.2489 12.1654 12.8955 12.6013 12.8955C13.0373 12.8955 13.3907 13.2489 13.3907 13.6849V24.4647L15.9837 21.8713C16.2922 21.5632 16.7921 21.5632 17.1006 21.8713Z" fill="black"/>
</svg>
