<svg width="95" height="69" viewBox="0 0 95 69" fill="none" xmlns="http://www.w3.org/2000/svg">
<path d="M90.9688 27.3945H79.6836V15.5242C79.6836 13.6747 78.1894 12.1805 76.3398 12.1805H43.4248L31.1679 0.456445C31.0119 0.310446 30.8068 0.228394 30.5932 0.226562H4.03125C2.18174 0.226562 0.6875 1.7208 0.6875 3.57031V65.4297C0.6875 67.2792 2.18174 68.7734 4.03125 68.7734H76.9668C78.3252 68.7734 79.5582 67.948 80.0702 66.6836L94.0722 31.9922C94.2289 31.5951 94.3125 31.1667 94.3125 30.7383C94.3125 28.8888 92.8183 27.3945 90.9688 27.3945ZM72.1602 27.3945H18.8691C17.5107 27.3945 16.2777 28.22 15.7657 29.4844L8.21094 48.2094V7.75H27.9077L40.405 19.7039H72.1602V27.3945Z" fill="#159351"/>
</svg>
