<svg width="93" height="105" viewBox="0 0 93 105" fill="none" xmlns="http://www.w3.org/2000/svg">
<path d="M47.9087 0C26.4104 0 8.95778 17.4203 8.95778 38.8829C8.95778 44.249 10.0487 49.3669 12.0206 54.02C13.0054 56.3465 14.2114 58.5572 15.611 60.6258C15.7694 60.8762 16.0219 61.0518 16.3119 61.1131C16.6018 61.1736 16.9037 61.1146 17.1487 60.9487C17.3946 60.7828 17.5619 60.5249 17.6135 60.2327C17.665 59.9413 17.5963 59.6408 17.4222 59.4009C16.1012 57.448 14.9638 55.3622 14.0336 53.1679C12.1738 48.7787 11.1449 43.953 11.1449 38.8836C11.1449 18.6051 27.5908 2.18753 47.9095 2.18753C68.2281 2.18753 84.674 18.6041 84.674 38.8836C84.674 40.5383 84.5567 42.1667 84.3512 43.7624L80.4837 38.4755V38.4748C80.2678 38.1713 79.9128 37.998 79.5407 38.0159C79.1357 38.0338 78.7734 38.2752 78.6007 38.6429C78.4281 39.0099 78.473 39.4434 78.7173 39.767L83.9701 46.9483H83.9709C84.1435 47.3541 84.5425 47.6165 84.9833 47.6135H85.0117H85.0147C85.3226 47.6053 85.6125 47.4685 85.8135 47.2361L92.6084 41.3783C92.9544 41.0883 93.0866 40.616 92.9424 40.1892C92.7982 39.7617 92.4059 39.4665 91.9554 39.4464C91.6707 39.4337 91.3927 39.5323 91.1798 39.7214L86.5561 43.7086C86.7511 42.1279 86.8542 40.5181 86.8542 38.8851C86.8542 17.4223 69.4012 0.00218379 47.9033 0.00218379L47.9087 0ZM53.104 16.3837C52.7072 16.3673 52.3329 16.5676 52.1259 16.9061L35.5112 39.5628C35.2677 39.8954 35.231 40.3363 35.4171 40.704C35.6031 41.0717 35.9805 41.3041 36.3922 41.3041H45.6478L41.7108 56.2476H41.7116C41.7056 56.267 41.6996 56.2864 41.6951 56.3059C41.5666 56.8402 41.8543 57.3865 42.3676 57.5831C42.8802 57.7789 43.4593 57.5644 43.7208 57.0809L60.3056 34.4625V34.4632C60.5492 34.1306 60.585 33.6897 60.399 33.322C60.2122 32.9543 59.8356 32.7226 59.4231 32.7226H50.1675L54.0821 17.8643H54.0829C54.2876 17.3285 54.044 16.7254 53.5247 16.4825H53.5232C53.4993 16.472 53.4746 16.4623 53.45 16.4541C53.435 16.4481 53.4201 16.4428 53.4059 16.4376C53.3962 16.4331 53.3865 16.4294 53.3775 16.4257C53.3529 16.4189 53.3289 16.4137 53.3043 16.4092H53.3035C53.2393 16.3943 53.1743 16.3845 53.1085 16.3808L53.104 16.3837ZM50.5283 22.7856L47.6928 33.5438H47.692C47.5919 33.9033 47.6823 34.2889 47.9311 34.567C48.1792 34.8442 48.5528 34.9765 48.9204 34.9167H57.2651L45.2891 51.2472L48.1195 40.5076C48.121 40.5024 48.1225 40.4964 48.1233 40.4912C48.2189 40.1511 48.1434 39.7857 47.9215 39.5106C47.6996 39.2356 47.3589 39.0846 47.0062 39.1056C46.9673 39.1071 46.9277 39.1115 46.8889 39.1175H38.5457L50.5283 22.7856ZM78.8459 56.3631C77.0362 56.3631 75.2249 57.0514 73.8463 58.4266L60.7509 71.4875C59.4298 68.8352 56.6884 67.0094 53.5256 67.0109L25.5676 67.0191C23.9313 66.9459 22.0968 66.975 20.3904 67.9735L13.7754 71.8314C12.8347 69.0325 10.1851 67.011 7.07154 67.011C3.17415 67.011 0 70.1768 0 74.0705V97.9382C0 101.832 3.17415 105 7.07154 105C10.9689 105 14.1423 101.833 14.1423 97.9382V95.2306C15.1802 95.1424 16.2577 95.395 17.436 95.7664L17.4353 95.7672C17.4368 95.7679 17.4383 95.7687 17.4398 95.7694L43.1501 103.971C44.6818 104.46 46.2368 104.297 47.5861 103.759C48.476 103.413 49.3092 102.884 50.0258 102.169L83.8388 68.4156C86.596 65.663 86.596 61.1804 83.8388 58.4286C82.4603 57.0527 80.6505 56.3652 78.8408 56.3652L78.8459 56.3631ZM78.8459 58.5327C80.0907 58.5327 81.3364 59.014 82.2995 59.9744C84.2257 61.8974 84.2257 64.9414 82.2995 66.8644L48.4864 100.618C48.1987 100.906 47.8842 101.149 47.5539 101.349L47.5532 101.35C47.5277 101.365 47.5031 101.379 47.4799 101.394C47.2079 101.55 46.9248 101.684 46.6326 101.789C46.1155 101.968 45.5753 102.058 45.0328 102.058C44.9731 102.059 44.914 102.064 44.855 102.074C44.5076 102.058 44.1609 102.001 43.8201 101.892L18.148 93.7017C18.1338 93.6965 18.1189 93.6905 18.104 93.686C17.3157 93.4379 16.4721 93.2032 15.5874 93.0926C15.1175 93.0336 14.6348 93.0194 14.1431 93.0485V74.1454C14.1969 74.1253 14.2485 74.1006 14.2985 74.0722L21.4917 69.8757C22.6282 69.2135 23.9717 69.1515 25.5199 69.2195V69.2188H25.5483C25.5536 69.2195 25.5588 69.2195 25.5648 69.2195L53.5227 69.2113C56.3194 69.2098 58.6238 71.1043 59.2396 73.6917H59.2388C59.2425 73.7059 59.247 73.7209 59.2508 73.7358C59.3539 74.1648 59.4025 74.6125 59.4025 75.0721C59.4025 78.3403 56.7985 80.9404 53.5213 80.9404H32.7862C32.494 80.9367 32.2123 81.0503 32.0039 81.2558C31.7962 81.4613 31.6789 81.7416 31.6789 82.0338C31.6789 82.3268 31.7962 82.607 32.0039 82.8125C32.2123 83.0181 32.494 83.1317 32.7862 83.1279H53.5194C57.9682 83.1279 61.5869 79.5167 61.5869 75.0722C61.5869 74.6537 61.5585 74.2426 61.4987 73.8405L75.3914 59.9821C76.3561 59.0203 77.6009 58.5405 78.8458 58.5405L78.8459 58.5327ZM7.07269 69.1983C9.79847 69.1983 11.9563 71.353 11.9563 74.0704V97.9382C11.9563 100.656 9.79847 102.812 7.07269 102.812C4.3469 102.812 2.18904 100.656 2.18904 97.9382V74.0704C2.18904 71.353 4.3469 69.1983 7.07269 69.1983Z" fill="#F9E745"/>
</svg>
