<svg width="56" height="54" viewBox="0 0 56 54" fill="none" xmlns="http://www.w3.org/2000/svg">
<path d="M36.0026 53.9991H36.0003H13.2005C13.0182 53.9991 12.8454 53.9161 12.7315 53.7732C12.6177 53.6308 12.575 53.444 12.6154 53.2662L18.6151 26.8669C18.6773 26.5938 18.9199 26.3997 19.2002 26.3997H30.0001C30.2804 26.3997 30.523 26.5934 30.5852 26.8669L36.5726 53.2139C36.5917 53.2724 36.6021 53.335 36.6021 53.3999C36.6026 53.731 36.334 53.9999 36.0025 53.9999L36.0026 53.9991ZM13.9517 52.799H35.2478L29.5207 27.5991H19.6788L13.9517 52.799Z" fill="black"/>
<path d="M30.0005 27.5998H19.2007C18.8691 27.5998 18.6006 27.3313 18.6006 26.9998V17.4001C18.6006 17.0685 18.8691 16.8 19.2007 16.8H21.6005C21.7057 16.8 21.8096 16.8277 21.9007 16.8803L30.3007 21.732C30.4862 21.8391 30.6005 22.0373 30.6005 22.2514L30.6001 26.9998C30.6005 27.3313 30.3316 27.5998 30.0005 27.5998L30.0005 27.5998ZM19.8003 26.3997H29.3999L29.4004 22.5979L21.4395 17.9997H19.8004L19.8003 26.3997Z" fill="black"/>
<path d="M41.6244 29.4367C41.5224 29.4367 41.4194 29.4109 41.3246 29.356L28.3119 21.8346L2.4433 7.266C2.21017 7.13447 2.09224 6.8646 2.15392 6.60425L3.6167 0.461219C3.65979 0.279793 3.78543 0.128302 3.95597 0.0521091C4.12652 -0.0240837 4.32291 -0.0163783 4.48664 0.0729735L45.4684 22.3212C45.6118 22.3992 45.7174 22.5321 45.7605 22.6891C45.8041 22.8465 45.7814 23.0143 45.6979 23.1549L42.1406 29.1442C42.029 29.3324 41.8295 29.4372 41.6245 29.4372L41.6244 29.4367ZM3.42584 6.44187L28.9067 20.7922L41.4119 28.0202L44.3474 23.0773L4.60217 1.5013L3.42584 6.44187Z" fill="black"/>
<path d="M48.4406 36.7611C48.3345 36.7611 48.2284 36.7329 48.1345 36.6771L39.8805 31.775C39.7436 31.6938 39.6451 31.5614 39.6057 31.4072C39.5662 31.2529 39.5903 31.0892 39.6715 30.9527L45.799 20.6355C45.8802 20.4986 46.0127 20.3997 46.1669 20.3607C46.3211 20.3212 46.4848 20.3448 46.6214 20.426L54.8748 25.3281C55.0563 25.4356 55.1674 25.6307 55.1683 25.8411L55.1996 32.8383C55.2005 33.0596 55.0794 33.2642 54.8844 33.3689L48.7254 36.6895C48.6361 36.7371 48.5381 36.7612 48.4406 36.7612L48.4406 36.7611ZM41.009 31.0494L48.4547 35.4716L53.9977 32.4831L53.9695 26.1864L46.5238 21.7641L41.009 31.0494Z" fill="black"/>
<path d="M54.5992 53.9991H0.600068C0.268509 53.9991 0 53.7306 0 53.399C0 53.0675 0.268509 52.799 0.600068 52.799H54.5992C54.9308 52.799 55.1993 53.0675 55.1993 53.399C55.1993 53.7306 54.9308 53.9991 54.5997 53.9991H54.5992Z" fill="black"/>
<path d="M10.8028 53.9991H10.8005H2.40049C2.22632 53.9991 2.06122 53.9233 1.94738 53.7923C1.83354 53.6607 1.78228 53.4866 1.80678 53.3142L3.00692 44.9142C3.0491 44.6184 3.30219 44.3989 3.60109 44.3989H9.60084C9.89928 44.3989 10.1524 44.6184 10.195 44.9142L11.3875 53.2597C11.3979 53.3046 11.4038 53.3509 11.4038 53.3985C11.4029 53.7301 11.1344 53.999 10.8028 53.999L10.8028 53.9991ZM3.09269 52.7989H10.1089L9.0802 45.5991H4.12093L3.09269 52.7989Z" fill="black"/>
<path d="M6.00046 45.5995C5.6689 45.5995 5.40039 45.331 5.40039 44.9995L5.40084 9.00003C5.40084 8.66847 5.66935 8.39996 6.00091 8.39996C6.33247 8.39996 6.60098 8.66847 6.60098 9.00003V44.9995C6.60053 45.331 6.33202 45.5995 6.00046 45.5995H6.00046Z" fill="black"/>
<path d="M48.5993 53.9991C48.2677 53.9991 47.9992 53.7306 47.9992 53.3991V36.5988C47.9992 36.2672 48.2677 35.9987 48.5993 35.9987C48.9308 35.9987 49.1993 36.2672 49.1993 36.5988V53.3979C49.1993 53.7295 48.9308 53.9984 48.5993 53.9984V53.9991Z" fill="black"/>
<path d="M35.9992 53.9991C35.8849 53.9991 35.7693 53.9664 35.6672 53.898L15.8666 40.6983C15.7129 40.5958 15.6149 40.428 15.6013 40.2438C15.5872 40.0597 15.6593 39.8792 15.7959 39.7549L28.9955 27.7547C29.2409 27.5316 29.6201 27.5497 29.8432 27.7951C30.0659 28.0405 30.0478 28.4196 29.8028 28.6428L17.171 40.1257L36.3318 52.8992C36.6076 53.0829 36.6824 53.4553 36.4983 53.731C36.3826 53.9048 36.1921 53.9987 35.9985 53.9987L35.9992 53.9991Z" fill="black"/>
<path d="M13.1994 53.9991C13.0053 53.9991 12.8153 53.9052 12.6996 53.732C12.5159 53.4562 12.5903 53.0838 12.8661 52.9001L32.0269 40.1266L19.395 28.6437C19.1497 28.421 19.132 28.0414 19.3547 27.796C19.5778 27.5506 19.957 27.5329 20.2024 27.7556L33.402 39.7558C33.539 39.8801 33.6107 40.0602 33.5971 40.2448C33.583 40.4289 33.485 40.5967 33.3317 40.6992L13.5311 53.8989C13.429 53.9674 13.3134 54 13.1991 54L13.1994 53.9991Z" fill="black"/>
<path d="M53.4 53.9991H43.8003C43.4687 53.9991 43.2002 53.7306 43.2002 53.399V49.7991C43.2002 49.4675 43.4687 49.199 43.8003 49.199C44.1318 49.199 44.4003 49.4675 44.4003 49.7991V52.799H52.8004V49.7991C52.8004 49.4675 53.0689 49.199 53.4004 49.199C53.732 49.199 54.0005 49.4675 54.0005 49.7991V53.399C54 53.7302 53.7315 53.9991 53.4 53.9991H53.4Z" fill="black"/>
</svg>
