<svg width="57" height="59" viewBox="0 0 57 59" fill="none" xmlns="http://www.w3.org/2000/svg">
<path d="M33.7174 5.25298H8.02703H8.02743C7.81374 5.25056 7.6085 5.33483 7.45731 5.48563C7.30611 5.63682 7.22224 5.84206 7.22466 6.05575V23.7177C7.22224 23.9314 7.30611 24.1366 7.45731 24.2878C7.6085 24.4386 7.81374 24.5229 8.02743 24.5205H33.7178H33.7174C33.9311 24.5229 34.1364 24.4386 34.2875 24.2878C34.4383 24.1366 34.5226 23.9314 34.5202 23.7177V6.05575C34.5226 5.84206 34.4388 5.63682 34.2875 5.48563C34.1363 5.33443 33.9311 5.25057 33.7174 5.25298ZM32.9147 22.9149H8.83036V6.85908H32.9147V22.9149Z" fill="black"/>
<path d="M33.7174 27.7314H8.02698H8.02738C7.58386 27.7314 7.22461 28.0907 7.22461 28.5342C7.22461 28.9777 7.58387 29.337 8.02738 29.337H33.7178H33.7174C34.1609 29.337 34.5201 28.9777 34.5201 28.5342C34.5201 28.0907 34.1609 27.7314 33.7174 27.7314Z" fill="black"/>
<path d="M57 1.23832C57 0.794793 56.6407 0.435547 56.1972 0.435547C55.7541 0.435547 55.3945 0.794804 55.3945 1.23832L55.3941 8.48384C53.868 8.54835 52.4842 9.39951 51.739 10.7329C50.9935 12.0667 50.9935 13.6912 51.7386 15.025C52.4838 16.3584 53.8675 17.2099 55.3937 17.2745L55.392 42.1824L55.3937 42.1901C55.3924 43.911 54.4731 45.5004 52.9821 46.3593C51.4911 47.2185 49.6553 47.2173 48.1655 46.3556C46.676 45.494 45.7592 43.9033 45.7608 42.1825V30.1398C45.7551 28.3677 45.0975 26.6601 43.9125 25.3421C42.7278 24.0244 41.0998 23.1891 39.3382 22.9955V4.45001C39.3378 3.3852 38.9148 2.36466 38.162 1.61188C37.4092 0.859096 36.3887 0.4361 35.3239 0.435688H6.42232C5.35792 0.436091 4.33738 0.859054 3.5846 1.61188C2.83182 2.36466 2.40882 3.3852 2.40841 4.45001V51.8166H0.802823C0.589127 51.8146 0.383895 51.8984 0.232698 52.0496C0.0815016 52.2004 -0.00236442 52.4061 5.09218e-05 52.6194V57.4364C-0.00236824 57.6501 0.0814974 57.8553 0.232698 58.0065C0.383895 58.1573 0.589127 58.2412 0.802823 58.2392H40.944H40.9436C41.1573 58.2412 41.3625 58.1573 41.5137 58.0065C41.6645 57.8553 41.7488 57.6501 41.7464 57.4364V52.6194C41.7488 52.4061 41.6649 52.2004 41.5137 52.0492C41.3625 51.8984 41.1573 51.8146 40.9436 51.8166H39.338V24.6016C40.6722 24.7923 41.8931 25.4572 42.7777 26.4741C43.6619 27.491 44.1511 28.7922 44.1551 30.1401V42.5585C44.1555 42.6706 44.1797 42.781 44.2256 42.8831C44.4615 45.0793 45.8126 46.9994 47.8004 47.963C49.7883 48.9271 52.1321 48.7985 54.0029 47.6231C55.8734 46.4478 57.006 44.3914 56.9999 42.1823L56.9975 42.1706L57 1.23832ZM39.338 53.4211H40.1408V56.6322H1.60574V53.4211H4.01407V4.44949C4.01326 3.81041 4.26687 3.19712 4.71846 2.74512C5.17045 2.29354 5.78369 2.03992 6.42241 2.04073H35.324C35.9631 2.03992 36.5763 2.29354 37.0283 2.74512C37.4799 3.19711 37.7335 3.81035 37.7327 4.44949V53.4211H39.338ZM52.7855 12.8784C52.788 12.17 53.0581 11.4886 53.5419 10.9712C54.0258 10.4539 54.6875 10.1386 55.3942 10.089L55.3938 15.6682C54.6874 15.6182 54.0257 15.3033 53.542 14.7855C53.0581 14.2682 52.788 13.5869 52.7855 12.8784L52.7855 12.8784Z" fill="black"/>
</svg>
