<svg width="22" height="22" viewBox="0 0 22 22" fill="none" xmlns="http://www.w3.org/2000/svg">
<path d="M18.8499 18.4377H15.7049V13.5123C15.7049 12.3378 15.6839 10.8259 14.0692 10.8259C12.4311 10.8259 12.1805 12.1056 12.1805 13.4268V18.4374H9.03551V8.30883H12.0547V9.693H12.097C12.3991 9.17637 12.8357 8.75136 13.3603 8.46324C13.8849 8.17513 14.4778 8.03469 15.0759 8.0569C18.2635 8.0569 18.8512 10.1536 18.8512 12.8813L18.8499 18.4377ZM5.48692 6.92433C5.12595 6.9244 4.77307 6.81742 4.4729 6.61692C4.17273 6.41643 3.93877 6.13142 3.80058 5.79795C3.66238 5.46447 3.62616 5.0975 3.69652 4.74345C3.76688 4.38939 3.94065 4.06415 4.19584 3.80886C4.45104 3.55356 4.77621 3.37968 5.13022 3.30919C5.48424 3.2387 5.8512 3.27478 6.18472 3.41286C6.51823 3.55094 6.80331 3.78482 7.00391 4.08493C7.2045 4.38503 7.31161 4.73789 7.31167 5.09887C7.31172 5.33855 7.26454 5.57589 7.17287 5.79734C7.08119 6.01879 6.9468 6.22002 6.77736 6.38953C6.60791 6.55904 6.40673 6.69351 6.18532 6.78528C5.9639 6.87704 5.72659 6.92429 5.48692 6.92433ZM7.05941 18.4377H3.91115V8.30883H7.05941V18.4377ZM20.4178 0.353375H2.3308C1.92028 0.348742 1.52469 0.507286 1.231 0.794169C0.937306 1.08105 0.769537 1.4728 0.764526 1.88333V20.0459C0.769365 20.4567 0.937036 20.8487 1.23072 21.1359C1.5244 21.423 1.92007 21.5819 2.3308 21.5775H20.4178C20.8293 21.5827 21.2261 21.4243 21.5209 21.1371C21.8158 20.8499 21.9846 20.4575 21.9903 20.0459V1.88202C21.9844 1.47068 21.8155 1.07848 21.5206 0.791606C21.2258 0.50473 20.8291 0.346639 20.4178 0.352064" fill="#226845"/>
</svg>
