<svg width="63" height="63" viewBox="0 0 63 63" fill="none" xmlns="http://www.w3.org/2000/svg">
<path d="M62.7665 60.9419L37.8264 27.2024C36.5113 25.4195 34.5274 24.2789 32.3533 24.0559V18.1479C32.3539 18.0014 32.3281 17.8561 32.2777 17.7191C33.7252 18.3256 35.2798 18.6174 36.8438 18.5768C40.3799 18.5421 43.8475 17.5827 46.9175 15.7903C53.5154 11.8973 56.9905 4.42965 55.6392 1.97743C54.5565 0.0653886 50.6023 -0.0117799 49.3604 0.0139427H49.3598C45.9209 0.0988716 42.5563 1.05043 39.5636 2.7831C36.3607 4.69698 33.7216 7.45772 31.9246 10.7741C31.7735 10.4828 31.6307 10.2424 31.5299 10.0707L31.5305 10.0713C29.7452 7.06531 27.2554 4.56119 24.2862 2.78296C17.6802 -1.11003 9.59615 -0.475382 8.21108 1.97675C6.82602 4.42887 10.3266 11.8972 16.9328 15.7896L16.9322 15.7902C19.9213 17.5306 23.2888 18.4828 26.7284 18.5594H27.0311C27.9715 18.5552 28.9095 18.4661 29.8347 18.2938V24.2011C27.9855 24.5971 26.3396 25.6629 25.2007 27.2024L0.260542 60.9419C-0.0328096 61.33 -0.0825908 61.8551 0.132309 62.2935C0.346619 62.7319 0.788116 63.0064 1.26767 62.9999H61.7323C62.2119 63.0065 62.6534 62.7319 62.8677 62.2935C63.0826 61.8551 63.0328 61.33 62.7395 60.9419L62.7665 60.9419ZM40.8498 4.97843C46.5243 1.6345 52.501 2.4665 53.4413 3.26375C53.6176 4.50717 51.3345 10.2087 45.6601 13.5526H45.6595C42.1679 15.6447 38.0644 16.4074 34.0752 15.7046C39.1121 12.8062 44.249 9.95989 45.1642 9.70281C45.8599 9.65078 46.3822 9.03295 46.3312 8.32243C46.2803 7.6119 45.6754 7.07841 44.9798 7.13043C44.6443 7.13043 43.8884 7.13043 33.6391 13.0384C35.1721 9.65676 37.6903 6.84209 40.8498 4.97843ZM18.7143 9.64295C19.6295 9.94318 24.7665 12.7895 29.8034 15.6878H29.8028C25.8141 16.3899 21.7106 15.6273 18.219 13.5352C12.5446 10.1828 10.2609 4.48067 10.429 3.24629C11.3945 2.47475 17.3793 1.64276 23.0205 4.96098C26.1607 6.81806 28.668 9.61294 30.2063 12.9694C19.9904 7.08784 19.2262 7.0788 18.924 7.0788C18.2284 7.02916 17.6253 7.56505 17.5767 8.27498C17.5281 8.9855 18.0521 9.60155 18.7478 9.65119L18.7143 9.64295ZM3.81406 60.4282L27.2088 28.7726C28.2264 27.391 29.8215 26.5776 31.5149 26.5776C33.2083 26.5776 34.8034 27.391 35.821 28.7726L59.2157 60.4282H3.81406Z" fill="black"/>
</svg>
