<svg width="8" height="9" viewBox="0 0 8 9" fill="none" xmlns="http://www.w3.org/2000/svg">
<path d="M4.00003 0.348511C2.91373 0.348511 2.7774 0.353261 2.35075 0.372677C1.92493 0.392177 1.63427 0.459594 1.37994 0.558511C1.11687 0.660677 0.893707 0.797344 0.67138 1.01976C0.448887 1.24209 0.312224 1.46526 0.209727 1.72826C0.110563 1.98268 0.0430656 2.27343 0.0238995 2.69909C0.00481671 3.12576 -0.000183105 3.26218 -0.000183105 4.34851C-0.000183105 5.43484 0.00465016 5.57076 0.0239829 5.99743C0.0435657 6.42326 0.11098 6.71393 0.209811 6.96826C0.312058 7.23134 0.44872 7.45451 0.67113 7.67684C0.893373 7.89934 1.11653 8.03634 1.37944 8.13851C1.63393 8.23743 1.92468 8.30484 2.35041 8.32434C2.77707 8.34376 2.91331 8.34851 3.99953 8.34851C5.08591 8.34851 5.22183 8.34376 5.64848 8.32434C6.0743 8.30484 6.36529 8.23743 6.61978 8.13851C6.88278 8.03634 7.1056 7.89934 7.32785 7.67684C7.55034 7.45451 7.687 7.23134 7.7895 6.96834C7.88783 6.71393 7.95533 6.42318 7.97533 5.99751C7.99449 5.57084 7.99949 5.43484 7.99949 4.34851C7.99949 3.26218 7.99449 3.12584 7.97533 2.69918C7.95533 2.27334 7.88783 1.98268 7.7895 1.72834C7.687 1.46526 7.55034 1.24209 7.32785 1.01976C7.10535 0.797261 6.88286 0.660594 6.61953 0.558511C6.36454 0.459594 6.07372 0.392177 5.6479 0.372677C5.22124 0.353261 5.08541 0.348511 3.99878 0.348511H4.00003ZM3.64121 1.06934C3.7477 1.06918 3.86653 1.06934 4.00003 1.06934C5.068 1.06934 5.19458 1.07318 5.61631 1.09234C6.0063 1.11018 6.21796 1.17534 6.35896 1.23009C6.54562 1.30259 6.6787 1.38926 6.81861 1.52926C6.95861 1.66926 7.04527 1.80259 7.11794 1.98926C7.17268 2.13009 7.23793 2.34176 7.25568 2.73176C7.27485 3.15343 7.27901 3.28009 7.27901 4.34759C7.27901 5.41509 7.27485 5.54176 7.25568 5.96343C7.23785 6.35343 7.17268 6.56509 7.11794 6.70593C7.04544 6.89259 6.95861 7.02551 6.81861 7.16543C6.67862 7.30543 6.5457 7.39209 6.35896 7.46459C6.21813 7.51959 6.0063 7.58459 5.61631 7.60243C5.19466 7.62159 5.068 7.62576 4.00003 7.62576C2.93198 7.62576 2.8054 7.62159 2.38375 7.60243C1.99376 7.58443 1.7821 7.51926 1.64102 7.46451C1.45436 7.39201 1.32103 7.30534 1.18103 7.16534C1.04104 7.02534 0.954372 6.89234 0.881707 6.70559C0.826959 6.56476 0.761711 6.35309 0.743961 5.96309C0.724795 5.54143 0.720962 5.41476 0.720962 4.34659C0.720962 3.27843 0.724795 3.15243 0.743961 2.73076C0.761794 2.34076 0.826959 2.12909 0.881707 1.98809C0.954205 1.80143 1.04104 1.66809 1.18103 1.52809C1.32103 1.38809 1.45436 1.30143 1.64102 1.22876C1.78201 1.17376 1.99376 1.10876 2.38375 1.09084C2.75273 1.07418 2.89573 1.06918 3.64121 1.06834V1.06934ZM6.13513 1.73351C5.87014 1.73351 5.65515 1.94826 5.65515 2.21334C5.65515 2.47834 5.87014 2.69334 6.13513 2.69334C6.40012 2.69334 6.61512 2.47834 6.61512 2.21334C6.61512 1.94834 6.40012 1.73334 6.13513 1.73334V1.73351ZM4.00003 2.29434C2.86565 2.29434 1.94592 3.21409 1.94592 4.34851C1.94592 5.48293 2.86565 6.40226 4.00003 6.40226C5.13441 6.40226 6.0538 5.48293 6.0538 4.34851C6.0538 3.21409 5.13433 2.29434 3.99995 2.29434H4.00003ZM4.00003 3.01518C4.73634 3.01518 5.33332 3.61209 5.33332 4.34851C5.33332 5.08484 4.73634 5.68184 4.00003 5.68184C3.26364 5.68184 2.66674 5.08484 2.66674 4.34851C2.66674 3.61209 3.26364 3.01518 4.00003 3.01518Z" fill="white"/>
</svg>
