<svg width="10" height="10" viewBox="0 0 10 10" fill="none" xmlns="http://www.w3.org/2000/svg">
<path d="M8.20651 8.25849H6.87978V6.20124C6.87978 5.71067 6.87094 5.07916 6.18975 5.07916C5.49875 5.07916 5.39302 5.61365 5.39302 6.16553V8.25835H4.06629V4.02782H5.33995V4.60597H5.35778C5.48524 4.39018 5.66943 4.21266 5.89073 4.09232C6.11202 3.97198 6.36214 3.91332 6.61444 3.92259C7.95913 3.92259 8.20706 4.79837 8.20706 5.93769L8.20651 8.25849ZM2.56931 3.44954C2.41703 3.44957 2.26817 3.40488 2.14154 3.32114C2.01491 3.2374 1.91621 3.11835 1.85792 2.97906C1.79962 2.83978 1.78434 2.6865 1.81402 2.53862C1.8437 2.39073 1.91701 2.25489 2.02466 2.14825C2.13232 2.04162 2.26949 1.96899 2.41883 1.93955C2.56818 1.91011 2.72298 1.92518 2.86368 1.98285C3.00437 2.04052 3.12463 2.13821 3.20925 2.26356C3.29387 2.38891 3.33906 2.53629 3.33909 2.68707C3.3391 2.78718 3.3192 2.88631 3.28053 2.97881C3.24185 3.07131 3.18516 3.15536 3.11368 3.22616C3.0422 3.29696 2.95733 3.35313 2.86393 3.39146C2.77052 3.42978 2.67041 3.44952 2.56931 3.44954ZM3.23267 8.25849H1.90456V4.02782H3.23267V8.25849ZM8.86794 0.70495H1.23789C1.06471 0.703015 0.897826 0.769236 0.773931 0.889063C0.650036 1.00889 0.579262 1.17252 0.577148 1.34399V8.93023C0.57919 9.10179 0.649922 9.26553 0.773813 9.38548C0.897703 9.50543 1.06462 9.57178 1.23789 9.56996H8.86794C9.04155 9.57211 9.20893 9.50595 9.33331 9.386C9.45769 9.26606 9.52889 9.10213 9.5313 8.93023V1.34344C9.52882 1.17163 9.45757 1.00782 9.33318 0.887992C9.2088 0.768169 9.04146 0.702136 8.86794 0.704402" fill="white"/>
</svg>
