<svg width="33" height="33" viewBox="0 0 33 33" fill="none" xmlns="http://www.w3.org/2000/svg">
<path d="M28.1176 28.1182H23.228V20.4607C23.228 18.6347 23.1954 16.284 20.6849 16.284C18.1383 16.284 17.7486 18.2736 17.7486 20.3278V28.1177H12.859V12.3707H17.553V14.5227H17.6187C18.0885 13.7195 18.7673 13.0587 19.5829 12.6108C20.3985 12.1629 21.3203 11.9445 22.2501 11.979C27.2059 11.979 28.1196 15.2389 28.1196 19.4797L28.1176 28.1182ZM7.34199 10.2182C6.78079 10.2183 6.23214 10.052 5.76547 9.7403C5.29879 9.42858 4.93505 8.98548 4.7202 8.46702C4.50534 7.94856 4.44903 7.37803 4.55842 6.82757C4.66781 6.27712 4.93797 5.77146 5.33473 5.37455C5.73148 4.97763 6.23703 4.70729 6.78742 4.5977C7.33782 4.48812 7.90834 4.54421 8.42686 4.75888C8.94538 4.97356 9.3886 5.33718 9.70047 5.80376C10.0123 6.27034 10.1789 6.81893 10.179 7.38015C10.179 7.75278 10.1057 8.12178 9.96315 8.46608C9.82062 8.81037 9.61169 9.12322 9.34825 9.38676C9.08481 9.6503 8.77203 9.85937 8.42779 10.002C8.08356 10.1447 7.71461 10.2182 7.34199 10.2182ZM9.78677 28.1182H4.89211V12.3707H9.78677V28.1182ZM30.5552 0.00224834H2.43511C1.79686 -0.00495452 1.18184 0.241537 0.72523 0.687558C0.268623 1.13358 0.00778946 1.74264 0 2.3809V30.6186C0.00752286 31.2572 0.268203 31.8667 0.724795 32.3131C1.18139 32.7596 1.79655 33.0066 2.43511 32.9998H30.5552C31.1951 33.0078 31.8119 32.7616 32.2703 32.3151C32.7287 31.8686 32.9911 31.2585 33 30.6186V2.37886C32.9909 1.73934 32.7283 1.12958 32.2699 0.683573C31.8114 0.237563 31.1947 -0.00822447 30.5552 0.00021013" fill="#226845"/>
</svg>
