<svg width="35" height="25" viewBox="0 0 35 25" fill="none" xmlns="http://www.w3.org/2000/svg">
<path d="M34.4673 24.3906H0.532155C0.240558 24.3906 0.00195312 24.1519 0.00195312 23.8604V0.530201C0.00195312 0.238605 0.240558 0 0.532155 0H34.4673C34.7589 0 34.9975 0.238605 34.9975 0.530201V23.8604C34.9978 24.1519 34.7592 24.3906 34.4676 24.3906H34.4673ZM1.06254 23.3298H33.9369L33.9366 1.06047H1.06227L1.06254 23.3298Z" fill="black"/>
<path d="M17.4996 14.3161C17.4043 14.3161 17.314 14.2895 17.2293 14.2418L0.261735 4.16725C0.0124808 4.01865 -0.0722038 3.69003 0.0761201 3.44079C0.224717 3.19154 0.553331 3.10686 0.802571 3.25518L17.4995 13.1709L34.1964 3.25518C34.451 3.10658 34.7743 3.18621 34.9229 3.44079C35.0714 3.69538 34.9918 4.01867 34.7373 4.16725L17.7697 14.2418C17.685 14.2895 17.5947 14.3159 17.4994 14.3159L17.4996 14.3161Z" fill="black"/>
<path d="M34.4677 24.3909C34.3404 24.3909 34.2184 24.3485 34.1178 24.2583L20.7504 12.3866C20.5331 12.1903 20.5118 11.8564 20.7081 11.6391C20.9043 11.4218 21.2383 11.4005 21.4556 11.5968L34.8229 23.4684C35.0402 23.6647 35.0616 23.9986 34.8653 24.2159C34.7593 24.3325 34.616 24.3909 34.4677 24.3909H34.4677Z" fill="black"/>
<path d="M0.532417 24.3903C0.383821 24.3903 0.240821 24.332 0.134833 24.21C-0.0614306 23.9927 -0.0401263 23.6585 0.177174 23.4625L13.5445 11.5909C13.7618 11.3946 14.1014 11.4159 14.292 11.6332C14.4883 11.8505 14.467 12.1847 14.2497 12.3807L0.883031 24.2578C0.782101 24.3478 0.66014 24.3905 0.532847 24.3905L0.532417 24.3903Z" fill="black"/>
</svg>
