<svg width="59" height="58" viewBox="0 0 59 58" fill="none" xmlns="http://www.w3.org/2000/svg">
<path d="M55.4275 10.956H35.5066V6.72518C36.5837 6.40745 37.377 5.42087 37.377 4.24245V2.60007C37.377 1.16623 36.2108 0.000505957 34.7775 0.000505957L2.59957 0C1.16624 0 0 1.16573 0 2.59957V4.24194C0 5.42083 0.793341 6.40695 1.87047 6.72468V20.2186C0.793289 20.5358 0 21.5219 0 22.7008V24.3432C0 25.5221 0.793341 26.5082 1.87047 26.8259V40.3198C0.793289 40.6366 0 41.6231 0 42.8015V44.4439C0 45.8778 1.16623 47.044 2.59957 47.044H22.5205V51.2743C21.4433 51.592 20.65 52.5791 20.65 53.7581V55.4004C20.65 56.8343 21.8163 58 23.2496 58H55.4262C56.8601 57.999 58.0263 56.8333 58.0263 55.3994V53.757C58.0263 52.5781 57.233 51.591 56.1558 51.2732V37.7806C57.233 37.4629 58.0263 36.4763 58.0263 35.2979V33.655C58.0263 32.4761 57.233 31.49 56.1558 31.1723V17.6783C57.233 17.3611 58.0263 16.3735 58.0263 15.1951V13.5527C58.0263 12.1194 56.8601 10.9542 55.4267 10.9542L55.4275 10.956ZM23.2509 10.956C21.8171 10.956 20.6513 12.1217 20.6513 13.5556V15.1979C20.6513 16.3768 21.4447 17.3629 22.5218 17.6807V20.1016H3.32232V6.84085H6.77299V11.5655C6.77299 13.5175 8.36175 15.1067 10.3142 15.1067C12.2667 15.1067 13.8559 13.518 13.8559 11.5655V6.84085H34.0567V10.9548L23.2509 10.956ZM28.8731 17.797H33.0548V22.5211C33.0548 23.6742 32.1167 24.6123 30.9641 24.6123C29.8116 24.6123 28.8729 23.6743 28.8729 22.5211L28.8731 17.797ZM30.9637 26.0633C32.9162 26.0633 34.5049 24.4745 34.5049 22.5215V17.7974H37.2244V25.4474C37.2244 27.3993 38.8132 28.9886 40.7657 28.9886C42.7181 28.9886 44.3074 27.3998 44.3074 25.4474L44.3069 17.7969H54.7063V31.0563H23.9713V17.7969H27.422V22.521C27.422 24.474 29.0102 26.0633 30.9632 26.0633H30.9637ZM38.6745 17.797H42.8562V25.447C42.8562 26.5996 41.9182 27.5376 40.765 27.5376C39.6119 27.5376 38.6744 26.5996 38.6744 25.447L38.6745 17.797ZM22.5214 37.7814V40.2023H3.32193L3.32142 26.9429H22.5209V31.1737C21.4437 31.4914 20.6504 32.478 20.6504 33.6564V35.2993C20.6509 36.4772 21.4443 37.4638 22.5214 37.7815L22.5214 37.7814ZM23.972 51.1574V37.898H54.707V51.1574H23.972ZM8.22173 6.84176H12.4034V11.5664C12.4034 12.719 11.4654 13.6571 10.3123 13.6571C9.15919 13.6571 8.2216 12.7191 8.2216 11.5664L8.22173 6.84176ZM1.45055 4.24219V2.59981C1.45055 1.96636 1.96562 1.45078 2.59958 1.45078H34.7762C35.4101 1.45078 35.9252 1.96636 35.9252 2.59981V4.24219C35.9252 4.87565 35.4096 5.39122 34.7762 5.39122H2.59958C1.96562 5.39122 1.45055 4.87565 1.45055 4.24219ZM1.45055 24.3445V22.7021C1.45055 22.0686 1.96562 21.5531 2.59958 21.5531H22.5205V25.493H2.59958C1.96562 25.493 1.45055 24.9774 1.45055 24.3444V24.3445ZM2.59958 45.5943C1.96562 45.5943 1.45055 45.0788 1.45055 44.4448V42.8024C1.45055 42.169 1.96562 41.6534 2.59958 41.6534H22.5205V45.5943L2.59958 45.5943ZM56.5765 53.7584V55.4008C56.5765 56.0343 56.0615 56.5498 55.4275 56.5498H23.2509C22.6169 56.5498 22.1019 56.0343 22.1019 55.4008V53.7584C22.1019 53.1245 22.6174 52.6089 23.2509 52.6089H55.4275C56.0615 52.6089 56.5765 53.1245 56.5765 53.7584ZM56.5765 33.6562V35.299C56.5765 35.9325 56.0615 36.4481 55.4275 36.4481L23.2509 36.4476C22.6169 36.4476 22.1019 35.932 22.1019 35.2985V33.6556C22.1019 33.0222 22.6174 32.5066 23.2509 32.5066H55.4275C56.0615 32.5071 56.5765 33.0227 56.5765 33.6562ZM56.5765 15.1962C56.5765 15.8302 56.0615 16.3458 55.4275 16.3458H23.2509C22.6169 16.3458 22.1019 15.8302 22.1019 15.1962V13.5539C22.1019 12.9204 22.6174 12.4048 23.2509 12.4048H55.4275C56.0615 12.4048 56.5765 12.9204 56.5765 13.5539V15.1962Z" fill="black"/>
</svg>
