<svg width="101" height="59" viewBox="0 0 101 59" fill="none" xmlns="http://www.w3.org/2000/svg">
<path d="M50.5886 0C59.5315 0 66.7533 7.223 66.7533 16.3378C66.7533 25.2806 59.5303 32.5025 50.5886 32.5025C41.474 32.5025 34.2509 25.2795 34.2509 16.3378C34.2509 7.22315 41.4739 0 50.5886 0ZM50.5886 3.43974C43.3656 3.43974 37.6906 9.11477 37.6906 16.3378C37.6906 23.389 43.3656 29.0639 50.5886 29.0639C57.6399 29.0639 63.3148 23.3889 63.3148 16.3378C63.3148 9.11477 57.6397 3.43974 50.5886 3.43974Z" fill="black"/>
<path d="M29.6042 57.4393C29.6042 58.2989 28.7446 58.9873 27.7126 58.815C26.8529 58.815 26.1646 57.9553 26.3369 56.9233C27.7126 44.7132 38.0311 35.2555 50.5847 35.2555C62.9666 35.2555 73.4567 44.7138 74.8325 56.9233C74.8325 57.9553 74.1447 58.815 73.2845 58.815C72.2525 58.9868 71.3929 58.2989 71.3929 57.4393C70.1891 46.7771 61.2463 38.6946 50.5846 38.6946C39.9228 38.6946 30.8073 46.7773 29.6046 57.4393H29.6042Z" fill="black"/>
<path d="M82.4001 13.9305C89.4513 13.9305 95.1262 19.6056 95.1262 26.4849C95.1262 33.5361 89.4512 39.211 82.4001 39.211C75.5213 39.211 69.8457 33.536 69.8457 26.4849C69.8457 19.6061 75.5207 13.9305 82.4001 13.9305ZM82.4001 17.3703C77.4129 17.3703 73.2854 21.4978 73.2854 26.4849C73.2854 31.6438 77.4129 35.7714 82.4001 35.7714C87.559 35.7714 91.6866 31.6439 91.6866 26.4849C91.6866 21.4978 87.5591 17.3703 82.4001 17.3703Z" fill="black"/>
<path d="M75.522 46.0883C74.6624 46.6043 73.6304 46.2601 73.1144 45.4005C72.7702 44.5409 73.1144 43.5089 73.974 42.9929C76.5535 41.789 79.4772 40.9294 82.4009 40.9294C91.6874 40.9294 99.5982 47.8081 100.974 56.9225C101.146 57.7821 100.458 58.8141 99.5983 58.8141C98.5663 58.9859 97.7067 58.2981 97.5348 57.4384C96.5028 49.8718 89.9681 44.3687 82.4012 44.3687C79.9936 44.3687 77.5858 45.0565 75.5224 46.0885L75.522 46.0883Z" fill="black"/>
<path d="M18.6008 13.9305C25.4796 13.9305 31.1552 19.6056 31.1552 26.4849C31.1552 33.5361 25.4801 39.211 18.6008 39.211C11.5495 39.211 5.87466 33.536 5.87466 26.4849C5.87466 19.6061 11.5497 13.9305 18.6008 13.9305ZM18.6008 17.3703C13.4419 17.3703 9.31426 21.4978 9.31426 26.4849C9.31426 31.6438 13.4418 35.7714 18.6008 35.7714C23.5879 35.7714 27.7154 31.6439 27.7154 26.4849C27.7154 21.4978 23.5879 17.3703 18.6008 17.3703Z" fill="black"/>
<path d="M3.46592 57.4394C3.2941 58.299 2.43391 58.9874 1.57429 58.815C0.542279 58.815 -0.145584 57.783 0.0263171 56.9234C1.40197 47.8088 9.31285 40.9303 18.5994 40.9303C21.523 40.9303 24.4467 41.7899 27.198 42.9938C27.8858 43.5098 28.23 44.5418 27.8858 45.4015C27.3698 46.2611 26.3379 46.6053 25.4782 46.0893C23.4147 45.0573 21.0071 44.3694 18.5994 44.3694C11.0328 44.3694 4.49768 49.8725 3.46584 57.4392L3.46592 57.4394Z" fill="black"/>
</svg>
