<svg width="28" height="27" viewBox="0 0 28 27" fill="none" xmlns="http://www.w3.org/2000/svg">
<path d="M22.6727 26.6934C19.4959 26.8835 10.2553 18.9243 9.49629 18.1766C8.80325 17.4939 6.32606 14.9555 4.1142 12.3367C0.153078 7.6468 -0.114843 6.11591 0.0280218 5.37265C0.0473337 5.27214 0.0940779 5.17909 0.163202 5.1036C2.06433 3.02343 3.08584 1.96191 5.03287 0.148593C5.2532 -0.0565922 5.59686 -0.048255 5.80686 0.167247L12.0894 6.61781C12.2301 6.76221 12.281 6.97157 12.2227 7.16491C11.9549 8.04862 11.69 8.70238 11.4776 9.22755C10.7909 10.9226 10.7909 10.9226 13.7136 13.5929C16.6066 16.2367 16.6071 16.2367 18.26 15.4481C18.7705 15.2045 19.4058 14.9017 20.2678 14.5747C20.451 14.5051 20.6575 14.5374 20.8107 14.6605L27.7927 20.2591C28.0284 20.4483 28.0692 20.7918 27.8836 21.0305C26.235 23.1548 25.1196 24.4296 23.2424 26.4834C23.1733 26.5589 23.0848 26.6138 22.9865 26.6421C22.89 26.67 22.7851 26.6866 22.6729 26.6934L22.6727 26.6934ZM10.2733 17.3878C12.4748 19.556 20.48 25.726 22.5216 25.6041C22.5306 25.6035 22.5389 25.6028 22.5475 25.6021C24.2021 23.7897 25.2593 22.5825 26.673 20.7816L20.3668 15.7243C19.692 15.9923 19.1681 16.2422 18.7367 16.4483C16.475 17.5269 16.1186 17.2912 12.9665 14.4111C9.73701 11.4595 9.5487 11.041 10.4513 8.81247C10.6295 8.37225 10.8459 7.83854 11.0659 7.15472L5.39179 1.32887C3.75993 2.86309 2.77353 3.89095 1.10347 5.71573C1.1129 7.5668 7.10965 14.2719 10.2737 17.3876L10.2733 17.3878Z" fill="black"/>
</svg>
