<svg width="73" height="67" viewBox="0 0 73 67" fill="none" xmlns="http://www.w3.org/2000/svg">
<path fill-rule="evenodd" clip-rule="evenodd" d="M26.8789 0C26.1839 0.00278843 25.6225 0.564381 25.6254 1.25426V15.3254C25.6282 16.0114 26.1878 16.5669 26.8789 16.5697H45.9075C46.5986 16.5669 47.1583 16.0114 47.1611 15.3254V1.25426C47.1639 0.564395 46.6026 0.00279828 45.9075 0H26.8789ZM28.1352 2.49846H44.6452V14.0712H28.1352V2.49846ZM17.2034 3.17661C16.868 3.16435 16.5415 3.28592 16.2965 3.51346C16.0527 3.74044 15.9094 4.05499 15.8993 4.38681C15.8892 4.71864 16.0128 5.04098 16.2426 5.28246L17.8894 7.03424H6.06803C5.73204 7.03312 5.41008 7.16474 5.17296 7.40008C4.93585 7.63598 4.80268 7.95554 4.80437 8.2885C4.80493 8.62032 4.93865 8.93821 5.1752 9.17188C5.41231 9.40611 5.7337 9.53661 6.06802 9.5355H17.8966L16.2424 11.2973V11.2967C16.0126 11.5382 15.889 11.8605 15.8991 12.1924C15.9092 12.5242 16.0525 12.8387 16.2964 13.0657C16.5408 13.2933 16.8667 13.4148 17.2021 13.4026C17.537 13.3908 17.8533 13.247 18.0809 13.0021L21.7044 9.13737C22.1561 8.65775 22.1561 7.91213 21.7044 7.43199L18.0809 3.57722C17.8539 3.33296 17.5381 3.18906 17.2032 3.1768L17.2034 3.17661ZM33.745 7.03424H33.7456C33.4101 7.03312 33.0876 7.16474 32.8505 7.40008C32.6134 7.63598 32.4808 7.95554 32.4819 8.2885C32.4825 8.62032 32.6162 8.93821 32.8533 9.17188C33.0899 9.40611 33.4113 9.53661 33.7456 9.5355H39.0429C39.7351 9.53271 40.2953 8.97557 40.2965 8.2885C40.2976 7.95723 40.1667 7.63878 39.9312 7.404C39.6964 7.16866 39.3767 7.03592 39.0429 7.03425L33.745 7.03424ZM52.5867 7.03424H52.5872C52.2518 7.03312 51.9298 7.16474 51.6921 7.40008C51.455 7.63598 51.3224 7.95554 51.3236 8.2885C51.3241 8.62032 51.4578 8.93821 51.695 9.17188C51.9321 9.40611 52.2529 9.53661 52.5872 9.5355H59.2859C65.5137 9.5355 70.483 14.4856 70.483 20.6832C70.483 26.8808 65.5131 31.8338 59.2859 31.8338H54.9689L56.6281 30.072H56.6287C56.8574 29.8294 56.9798 29.5054 56.9681 29.173C56.9557 28.8406 56.8107 28.5266 56.5646 28.3008C56.0561 27.8334 55.2628 27.8619 54.7896 28.3643L51.1565 32.2291C50.7048 32.7087 50.7048 33.4543 51.1565 33.9345L54.7896 37.7892C55.2622 38.2923 56.0555 38.3218 56.5646 37.855C56.8107 37.6292 56.9557 37.3152 56.9681 36.9828C56.9799 36.6504 56.8574 36.3264 56.6287 36.0838L54.979 34.332H59.2857C66.8671 34.332 73 28.2192 73 20.683C73 13.1468 66.8671 7.03399 59.2857 7.03399L52.5867 7.03424ZM26.8781 24.7876H26.8786C26.1836 24.7904 25.6223 25.3514 25.6251 26.0418V40.1152V40.1146C25.6223 40.805 26.1836 41.3661 26.8786 41.3689H45.9073C46.6023 41.3661 47.1636 40.805 47.1608 40.1146V26.0413V26.0418C47.1636 25.3514 46.6023 24.7904 45.9073 24.7876H26.8781ZM28.1344 27.2861H44.6444V38.8682H28.1359L28.1344 27.2861ZM13.7216 31.834C6.14025 31.834 0 37.9345 0 45.4707C0 53.0068 6.14025 59.1197 13.7216 59.1197H17.8907L16.241 60.8815L16.2421 60.8809C15.7685 61.3829 15.7926 62.1703 16.2961 62.6427C16.541 62.8697 16.8669 62.9907 17.2024 62.9784C17.5373 62.9662 17.8536 62.8212 18.0806 62.5769L21.7041 58.7244C22.1575 58.2437 22.1575 57.4969 21.7041 57.0162L18.0806 53.1541C17.8519 52.9099 17.5339 52.7666 17.1985 52.7559C16.8636 52.7465 16.5388 52.8692 16.2961 53.0978C15.7926 53.5702 15.7685 54.3576 16.2421 54.8596L17.8963 56.6213L13.7221 56.6208C7.49421 56.6208 2.51762 51.668 2.51762 45.4702C2.51762 39.2725 7.49479 34.332 13.7221 34.332L20.4135 34.3325C20.7489 34.3336 21.0709 34.202 21.3086 33.9667C21.5457 33.7308 21.6783 33.4112 21.6772 33.0783C21.6755 32.747 21.5418 32.4297 21.3047 32.1965C21.0681 31.9629 20.7473 31.8324 20.4135 31.834L13.7216 31.834ZM33.7442 31.834H33.7453C33.4116 31.8323 33.0907 31.9628 32.8536 32.1965C32.6165 32.4296 32.4828 32.7469 32.4817 33.0782C32.4806 33.4111 32.6132 33.7307 32.8503 33.9666C33.0874 34.2019 33.4099 34.3336 33.7454 34.3324H39.0427C39.3765 34.3308 39.6962 34.198 39.931 33.9627C40.1665 33.7279 40.2974 33.4095 40.2963 33.0782C40.2934 32.3922 39.7338 31.8368 39.0427 31.834L33.7442 31.834ZM26.8791 49.5845C26.188 49.5872 25.6284 50.1427 25.6256 50.8287V64.902C25.6228 65.5919 26.1841 66.1535 26.8791 66.1562H45.9078C46.6028 66.1535 47.1641 65.5919 47.1613 64.902V50.8287C47.1585 50.1427 46.5989 49.5872 45.9078 49.5845H26.8791ZM28.1355 52.0829H44.6455V63.6578H28.1355V52.0829ZM63.2138 52.7611C62.8812 52.751 62.5576 52.8721 62.3143 53.0979C61.808 53.5675 61.7794 54.355 62.2502 54.8597L63.9117 56.6215H52.0752L52.0758 56.6209C51.3847 56.6237 50.8251 57.1792 50.8223 57.8657C50.8195 58.5555 51.3808 59.1171 52.0758 59.1194H63.9073L62.2502 60.8811C61.7794 61.3859 61.808 62.1733 62.3143 62.6429C62.8233 63.1097 63.6167 63.0801 64.0892 62.5771L67.7224 58.7246C68.1758 58.2439 68.1758 57.4971 67.7224 57.0164L64.0892 53.1538V53.1543C63.8611 52.9134 63.5465 52.7722 63.2138 52.7611ZM33.7453 56.6208C33.4115 56.6197 33.0907 56.7502 32.8536 56.9833C32.6165 57.217 32.4827 57.5343 32.4816 57.8656C32.4805 58.1985 32.6131 58.5181 32.8502 58.7535C33.0873 58.9894 33.4098 59.121 33.7453 59.1193H39.0426C39.3764 59.1182 39.6961 58.9855 39.931 58.7501C40.1664 58.5148 40.2973 58.1969 40.2962 57.8656C40.2934 57.1791 39.7338 56.6236 39.0427 56.6208L33.7453 56.6208Z" fill="black"/>
</svg>
