<svg width="23" height="13" viewBox="0 0 23 13" fill="none" xmlns="http://www.w3.org/2000/svg">
<path fill-rule="evenodd" clip-rule="evenodd" d="M22.0964 0.402582C22.3542 0.660432 22.499 1.01011 22.499 1.37471C22.499 1.73931 22.3542 2.08898 22.0964 2.34683L12.4709 11.9718C12.2131 12.2296 11.8634 12.3744 11.4988 12.3744C11.1342 12.3744 10.7845 12.2296 10.5266 11.9718L0.901119 2.34683C0.65064 2.0875 0.512041 1.74017 0.515175 1.37965C0.518307 1.01913 0.662922 0.674266 0.917871 0.41933C1.17282 0.164394 1.51771 0.0197868 1.87824 0.0166539C2.23878 0.0135211 2.58613 0.152113 2.84547 0.402581L11.4988 9.05546L20.1521 0.402581C20.4099 0.144809 20.7596 -7.60313e-08 21.1242 -6.00933e-08C21.4889 -4.41553e-08 21.8386 0.144809 22.0964 0.402582Z" fill="black"/>
</svg>
