<svg width="9" height="14" viewBox="0 0 9 14" fill="none" xmlns="http://www.w3.org/2000/svg">
<path fill-rule="evenodd" clip-rule="evenodd" d="M0.527286 0.265153C0.691165 0.101316 0.913402 0.00927734 1.14513 0.00927734C1.37685 0.00927734 1.59909 0.101316 1.76296 0.265153L7.88019 6.38268C8.04402 6.54657 8.13605 6.76881 8.13605 7.00055C8.13605 7.23228 8.04402 7.45453 7.88019 7.61842L1.76296 13.7359C1.59815 13.8951 1.3774 13.9832 1.14827 13.9812C0.91914 13.9792 0.699957 13.8873 0.537931 13.7253C0.375905 13.5633 0.284 13.3441 0.282008 13.1149C0.280017 12.8858 0.3681 12.665 0.527286 12.5002L6.02667 7.00055L0.527286 1.50089C0.363457 1.33701 0.271423 1.11476 0.271423 0.883023C0.271423 0.651287 0.363457 0.42904 0.527286 0.265153Z" fill="#03141B"/>
</svg>
