<svg width="81" height="82" viewBox="0 0 81 82" fill="none" xmlns="http://www.w3.org/2000/svg">
<path d="M7.75851 63.5917C7.95344 63.5917 8.15049 63.5352 8.32423 63.4179C8.78825 63.1051 8.90974 62.4758 8.59685 62.0125C4.29783 55.6497 2.02565 48.2112 2.02565 40.5002C2.02565 19.2845 19.2855 2.02474 40.5011 2.02474C49.0774 2.02474 57.4028 4.89431 64.1342 10.1384L58.4763 10.1504C57.9169 10.1511 57.4649 10.6059 57.4656 11.1646C57.4663 11.7233 57.9197 12.1753 58.4784 12.1753H58.4805L66.9354 12.1576C67.4933 12.1569 67.9446 11.7049 67.946 11.147L67.9644 2.65976C67.9651 2.10038 67.5131 1.64625 66.9537 1.64555C66.4396 1.63566 65.9402 2.09686 65.9395 2.65622L65.9254 8.98659C58.744 3.18887 49.763 0 40.5005 0C18.1674 0 0 18.1674 0 40.5005C0 48.6156 2.39206 56.4466 6.91726 63.1446C7.1136 63.4342 7.43215 63.591 7.75772 63.591L7.75851 63.5917Z" fill="black"/>
<path d="M72.6783 17.5838C72.2143 17.8967 72.0928 18.5259 72.4057 18.9893C76.704 25.352 78.9761 32.7905 78.9761 40.5015C78.9761 61.7173 61.7162 78.977 40.5007 78.977C31.5853 78.977 23.0211 75.9062 16.1624 70.2969L22.0252 70.2842C22.5846 70.2834 23.0366 69.8286 23.0359 69.2699C23.0352 68.7113 22.5818 68.2593 22.0231 68.2593H22.021L13.5661 68.2769C13.0082 68.2776 12.5569 68.7296 12.5555 69.2876L12.5371 77.7748C12.5364 78.3342 12.9884 78.7883 13.5478 78.789H13.5499C14.1078 78.789 14.5613 78.337 14.5627 77.7783L14.5761 71.614C21.845 77.6787 30.9835 81.0017 40.5 81.0017C62.8332 81.0017 81.0005 62.8344 81.0005 40.5013C81.0005 32.3862 78.6085 24.5551 74.0833 17.8571C73.7697 17.3945 73.1411 17.2723 72.6778 17.5845L72.6783 17.5838Z" fill="black"/>
<path d="M58.4216 40.8283C63.081 35.2197 61.9128 21.549 61.8605 20.9686C61.8365 20.7003 61.7066 20.4524 61.4989 20.2807C61.2913 20.1084 61.0278 20.0265 60.7559 20.0512C60.1768 20.1063 46.5231 21.4644 41.8635 27.0722C40.8345 28.3111 40.0844 29.8451 39.5949 31.6101C31.4764 28.3527 20.6194 28.0385 20.0227 28.0244C19.4683 28.006 19.0001 28.4524 18.9859 29.0117C18.9668 29.7964 18.5925 48.3073 25.3119 55.3642C29.6929 59.9641 36.6957 60.9684 41.9708 60.9684C45.854 60.9684 48.8011 60.4246 49.0794 60.3716C49.1211 60.3639 49.1578 60.3441 49.1981 60.3314C49.2298 60.3215 49.2609 60.313 49.292 60.2996C49.3986 60.253 49.4982 60.1929 49.5823 60.1145C49.5844 60.1124 49.5872 60.1117 49.5893 60.1103C49.5971 60.1025 49.5999 60.0919 49.6077 60.0842C49.6826 60.0086 49.7419 59.9203 49.7899 59.8236C49.8055 59.7925 49.8189 59.7628 49.8309 59.731C49.8415 59.7042 49.8577 59.6802 49.8655 59.6519C49.9841 59.2289 51.8502 52.3801 50.6297 45.3571C53.9768 44.5343 56.6026 43.0178 58.4213 40.8284L58.4216 40.8283ZM43.4218 28.3676C46.3944 24.7896 54.1 23.1072 58.2323 22.4399L46.0335 35.6316C44.8322 34.3702 43.25 33.3207 41.464 32.4413C41.8736 30.8275 42.5227 29.4502 43.4218 28.3676ZM48.3147 57.3055L22.4432 30.1883C27.6759 30.5789 39.7899 32.009 44.5666 37.0264C50.3143 43.0622 49.1002 53.2177 48.3142 57.3055H48.3147ZM26.779 53.9677C22.0328 48.9836 21.1754 36.9452 21.0328 31.6436L46.7958 58.6469C42.5376 59.1265 32.1639 59.6202 26.7788 53.9671L26.779 53.9677ZM50.1987 43.3764C49.6295 41.2174 48.7262 39.0979 47.3404 37.2001L59.9678 23.5444C60.09 27.6266 59.9198 35.8547 56.8645 39.5331C55.3375 41.3715 53.0916 42.6576 50.1987 43.3766V43.3764Z" fill="black"/>
</svg>
