<svg width="81" height="80" viewBox="0 0 81 80" fill="none" xmlns="http://www.w3.org/2000/svg">
<path d="M79.6639 56.2118L79.6795 56.2444C79.8688 56.6712 79.8336 57.1647 79.5839 57.5609C79.3277 57.9675 78.8816 58.2149 78.4014 58.2165H47.408H47.208V58.4165V69.0844V69.2844H47.408H53.4904C55.0886 69.2863 56.6214 69.9218 57.7521 71.0525C58.8822 72.1831 59.5178 73.716 59.5196 75.3149V79.8004H20.4826V75.3149C20.4845 73.7161 21.1201 72.1833 22.2507 71.0525C23.3814 69.9218 24.9142 69.2862 26.5131 69.2844H32.5955H32.7955V69.0844V58.4165V58.2165H32.5955H1.59984C1.11924 58.2165 0.671621 57.9697 0.414935 57.5628C0.158869 57.156 0.129606 56.6454 0.337883 56.2121L0.33801 56.2118L14.901 25.7956C15.1338 25.3095 15.6253 25.0002 16.1641 25.0002H63.8377C64.3766 25.0002 64.868 25.3095 65.1001 25.7954L65.1002 25.7956L79.6639 56.2118ZM31.3065 39.9763L31.2695 40.2078H31.504L48.4982 40.2076L48.7326 40.2076L48.6957 39.9761L46.7791 27.9683L46.7523 27.7999H46.5816H33.4205H33.2499L33.223 27.9683L32.1144 34.9135L32.3119 34.945L32.1144 34.9135L31.3065 39.9763ZM30.993 43.0078H30.8224L30.7955 43.1763L28.8803 55.1847L28.8434 55.4162H29.0778H50.9257H51.1601L51.1232 55.1847L50.6117 51.9778L50.4142 52.0094L50.6117 51.9778L49.2066 43.1763L49.1797 43.0078H49.0091H30.993ZM53.9688 55.2477L53.9957 55.4162H54.1663L75.8616 55.4161L76.1792 55.4161L76.042 55.1297L70.2923 43.1213L70.2379 43.0077L70.1119 43.0077L52.2498 43.0083L52.0153 43.0083L52.0523 43.2398L52.7628 47.693L52.9603 47.6615L52.7628 47.6931L53.9688 55.2477ZM68.5794 40.2078H68.8969L68.7598 39.9214L63.0113 27.9137L62.9569 27.8H62.8309H49.823H49.5885L49.6255 28.0315L51.542 40.0393L51.5689 40.2078H51.7395H68.5794ZM30.378 28.0315L30.415 27.8L30.1805 27.8L17.1737 27.8002L17.0478 27.8002L16.9934 27.9138L11.2436 39.9215L11.1065 40.2079H11.424H28.2639H28.4345L28.4614 40.0394L30.1498 29.4608L30.378 28.0315ZM9.89136 43.008H9.76538L9.71097 43.1216L3.96106 55.13L3.82394 55.4164H4.14145H25.8369H26.0076L26.0344 55.2479L27.951 43.2395L27.9879 43.008H27.7535H9.89136ZM56.7205 75.3147V75.1442L56.7156 75.1434C56.6724 74.3493 56.3383 73.5967 55.7733 73.0317C55.168 72.4263 54.3471 72.0853 53.4912 72.0839H53.4909H26.5144H26.5141C25.6576 72.0853 24.8368 72.4256 24.2308 73.031L24.2306 73.0311C23.6253 73.6371 23.2849 74.4579 23.2836 75.3144V75.3147V76.801V77.001H23.4836H56.5205H56.7205V76.801V75.3147ZM44.2083 69.2845H44.4083V69.0845V58.4166V58.2166H44.2083H35.7961H35.5961V58.4166V69.0845V69.2845H35.7961H44.2083ZM69.7944 19.3391C69.7873 20.9332 69.3591 22.4946 68.5564 23.8673C68.0777 22.9856 67.3605 22.2564 66.4864 21.7628C67.2894 19.9094 67.1538 17.7777 66.1128 16.0379C65.0395 14.2435 63.1439 13.1003 61.056 12.9881L61.0453 13.1878L61.056 12.9881C58.9682 12.8761 56.9617 13.8098 55.7021 15.4787L55.702 15.4787C54.499 17.0734 54.1286 19.1399 54.6919 21.0452H51.8071C51.3201 18.5757 51.8796 16.0117 53.3575 13.9684C54.867 11.8815 57.1913 10.5334 59.7526 10.2603C62.314 9.98732 64.8706 10.8148 66.7859 12.5366C68.7012 14.259 69.795 16.7137 69.7944 19.289L69.7944 19.3391ZM73.6213 17.8918L79.8032 17.8912V20.6906L73.6213 20.6912V17.8918ZM73.2217 4.80179L75.2014 6.7815L70.8302 11.1527L68.8511 9.17357L73.2217 4.80179ZM62.112 0.2V6.38241L59.3126 6.38187V0.2H62.112ZM46.223 6.78148L48.2022 4.80179L52.5733 9.17293L50.5936 11.1521L46.223 6.78148Z" fill="black" stroke="#EDF2EE" stroke-width="0.4"/>
</svg>
