<svg width="36" height="89" viewBox="0 0 36 89" fill="none" xmlns="http://www.w3.org/2000/svg">
<path d="M28.2681 35.1426C27.5473 35.6613 26.8635 36.2292 26.2201 36.8413C28.3762 37.9218 30.1896 39.5793 31.4591 41.6297C32.7293 43.6795 33.4052 46.0418 33.4126 48.4532V85.5125L2.4966 85.5119V48.4526V48.4532C2.50704 46.0424 3.18478 43.6814 4.45431 41.6322C5.72323 39.5824 7.53538 37.9243 9.68907 36.8414C9.04018 36.2355 8.35691 35.6683 7.64115 35.1427C2.91668 37.9133 0.00974376 42.9761 0 48.4532V88.0097H35.9105V48.4532C35.9 42.9759 32.9933 37.9133 28.2687 35.1427L28.2681 35.1426Z" fill="black"/>
<path d="M3.47246 31.072H11.264L11.439 31.7461C11.5139 31.9708 11.5888 32.1955 11.6637 32.3704H11.663C12.2346 33.7603 13.2426 34.9261 14.5348 35.6917C15.571 36.3049 16.7521 36.6285 17.9561 36.6285C19.1601 36.6285 20.3411 36.3049 21.3774 35.6917C22.6758 34.9335 23.6862 33.7652 24.2491 32.3704C24.3418 32.1691 24.4174 31.9604 24.4738 31.7461L24.6488 31.072H32.4403H32.4397C32.7768 31.0757 33.1009 30.9443 33.3403 30.7074C33.5798 30.4704 33.7148 30.1475 33.7148 29.8111C33.7148 29.4741 33.5797 29.1512 33.3403 28.9142C33.1009 28.6772 32.7768 28.5465 32.4397 28.5502H24.6733L24.4732 27.8761L24.4738 27.8755C24.0576 26.4727 23.2024 25.24 22.0336 24.3591C20.8648 23.4781 19.4448 22.995 17.9813 22.9809C16.5055 22.9699 15.0665 23.4419 13.8855 24.3259C12.7038 25.21 11.8443 26.4568 11.4386 27.8755L11.2384 28.5496L3.47266 28.5502C2.78142 28.5576 2.22461 29.1199 2.22461 29.8111C2.22461 30.5024 2.78142 31.0647 3.47266 31.0721L3.47246 31.072ZM13.9357 28.3003V28.2751C14.3513 27.1817 15.1948 26.3051 16.2715 25.8465C17.3477 25.3886 18.5644 25.3886 19.6406 25.8465C20.7174 26.3051 21.561 27.1818 21.9765 28.2751C22.1502 28.773 22.2429 29.296 22.2515 29.8233C22.2429 30.3347 22.1502 30.8406 21.9765 31.3219C21.8089 31.8228 21.5369 32.2826 21.1772 32.67C20.3718 33.5927 19.206 34.1206 17.9812 34.1188C16.7209 34.1366 15.5189 33.5865 14.7099 32.6203C14.3661 32.2446 14.1027 31.8025 13.9357 31.3219C13.5692 30.3476 13.5692 29.2739 13.9357 28.3002L13.9357 28.3003Z" fill="black"/>
<path d="M13.1862 48.2778C12.4961 48.2778 11.9375 48.8371 11.9375 49.5265C11.9375 50.2159 12.4961 50.7752 13.1862 50.7752H22.7255C23.4149 50.7752 23.9741 50.2159 23.9741 49.5265C23.9741 48.8371 23.4149 48.2778 22.7255 48.2778H13.1862Z" fill="black"/>
<path d="M14.6097 18.7102C15.1905 19.0883 15.9671 18.933 16.3581 18.3608C16.7363 17.7881 16.5803 17.017 16.0082 16.6376C14.6337 15.8426 13.7171 14.4442 13.5361 12.8671C13.2113 9.67051 15.7585 5.92514 17.3066 3.97733L18.031 3.05341L18.78 3.97733C20.3282 5.92529 22.8753 9.67114 22.5505 12.8671H22.5511C22.37 14.4442 21.4528 15.8427 20.079 16.6376C19.5069 17.0176 19.3503 17.788 19.7291 18.3608C20.1201 18.9336 20.8967 19.0889 21.4775 18.7102C23.4776 17.4953 24.7974 15.4185 25.0486 13.0918C25.6477 7.14809 19.2048 0.630299 18.9304 0.355903C18.4344 -0.118634 17.6529 -0.118634 17.1569 0.355903C16.4577 1.05513 10.4642 7.24804 11.0388 13.0918C11.2898 15.4185 12.6097 17.4953 14.6098 18.7102H14.6097Z" fill="black"/>
</svg>
