<svg width="65" height="65" viewBox="0 0 65 65" fill="none" xmlns="http://www.w3.org/2000/svg">
<path d="M32.9968 12.5783C32.7037 12.3515 32.2943 12.3515 32.0011 12.5783C26.2008 17.0723 25.3407 23.0416 25.2743 25.7575C22.5953 24.5203 19.3493 24.1478 15.56 24.6796C15.1586 24.7358 14.8604 25.0794 14.8604 25.4848C14.8604 34.94 22.3379 42.6821 31.6905 43.1045V51.7517C31.6905 52.2007 32.0545 52.5647 32.5036 52.5647C32.9526 52.5647 33.3166 52.2007 33.3166 51.7517L33.3161 43.1039C42.6646 42.6758 50.1375 34.9363 50.1375 25.4842C50.1375 25.0788 49.8392 24.7358 49.4378 24.679C45.6487 24.1461 42.4025 24.5186 39.7235 25.7563C39.6566 23.0404 38.7965 17.0717 32.9967 12.5777L32.9968 12.5783ZM31.6904 41.4776C23.4719 41.0671 16.8663 34.4305 16.502 26.2006C20.9528 25.7062 24.5186 26.5913 27.1008 28.8309C31.1984 32.3847 31.6385 38.3569 31.6849 39.4988C31.6821 39.6009 31.6815 39.6661 31.6815 39.6899C31.6815 39.7301 31.6849 39.7704 31.69 39.8095L31.6904 41.4776ZM32.499 34.6505C31.8078 32.3361 30.5309 29.6581 28.1763 27.6107C27.7731 27.2603 27.3485 26.9423 26.9062 26.6497C26.8297 25.0814 26.9187 18.9295 32.499 14.2643C38.0793 18.929 38.1684 25.0809 38.0923 26.6497C37.6501 26.9423 37.2254 27.2603 36.8223 27.6107C34.4669 29.6581 33.1902 32.3355 32.499 34.6505ZM48.4959 26.2C48.1325 34.4271 41.5305 41.0619 33.3162 41.4771V39.6894C33.3162 39.6656 33.3156 39.6004 33.3128 39.4983C33.3593 38.3553 33.7998 32.3842 37.8969 28.8304C40.4795 26.5901 44.0447 25.7068 48.4957 26.2001L48.4959 26.2Z" fill="black"/>
<path d="M46.2001 0.238133C46.0476 0.0856097 45.8412 0 45.6252 0H19.3748C19.1594 0 18.9524 0.0856155 18.7999 0.238133L0.238132 18.7999C0.0856086 18.9524 0 19.1588 0 19.3748V45.6266C0 45.8421 0.0856144 46.049 0.238132 46.2016L18.7999 64.7633C18.9524 64.9147 19.1594 65.0003 19.3748 65.0003H45.6252C45.8406 65.0003 46.0476 64.9147 46.2001 64.7622L64.7619 46.2004C64.9144 46.0479 65 45.8415 65 45.6255V19.3751C65 19.1597 64.9144 18.9527 64.7619 18.8002L46.2001 0.238133ZM63.3742 45.2898L45.2871 63.3754H19.7103L1.62312 45.2898V19.7129L19.7088 1.62722H45.2857L63.3713 19.7129L63.3742 45.2898Z" fill="black"/>
</svg>
