<svg width="95" height="94" viewBox="0 0 95 94" fill="none" xmlns="http://www.w3.org/2000/svg">
<path d="M28.3617 14.3552C28.3617 12.2957 29.2354 9.08125 31.6979 6.7977C33.7864 4.86073 36.6206 3.97032 39.915 4.21406C46.5356 4.71525 47.7946 0.933519 47.8449 0.774211C48.0232 0.202183 48.6287 -0.124585 49.2015 0.0437518C49.775 0.21437 50.1056 0.80849 49.9426 1.38356C49.8771 1.61511 48.2197 7.02916 39.7512 6.39251C37.0517 6.19065 34.8383 6.864 33.1831 8.39956C31.2369 10.2048 30.5462 12.7366 30.5462 14.356C30.5462 14.96 30.058 15.4482 29.4539 15.4482C28.8499 15.4482 28.3617 14.9577 28.3617 14.3552L28.3617 14.3552ZM45.1821 7.99885C45.0595 8.06893 43.9154 8.66075 40.1184 8.39188C37.2582 8.17783 35.4918 9.15965 34.5108 10.0143C32.6668 11.6214 32.3948 13.6863 32.3544 14.282C32.3148 14.8838 32.7703 15.4033 33.3735 15.4429C33.3979 15.4436 33.4215 15.4451 33.4459 15.4451C34.0156 15.4451 34.4963 15.0026 34.5343 14.4245C34.5869 13.6369 34.9845 12.4974 35.945 11.6611C36.9169 10.8148 38.2697 10.4492 39.9614 10.5688C44.8271 10.9192 46.2719 9.9998 46.6726 9.58926C47.0931 9.15662 47.0824 8.46578 46.6498 8.04532C46.2423 7.65077 45.6048 7.63476 45.182 7.99886L45.1821 7.99885ZM14.2369 22.6408C14.2674 22.6438 14.2994 22.6453 14.3299 22.6453C14.892 22.6453 15.368 22.2142 15.416 21.6453C15.6331 19.0745 17.9441 18.1506 21.185 17.1269C23.3383 16.4467 25.3713 15.8046 25.9479 14.103C26.1414 13.5317 25.8344 12.9117 25.2647 12.7175C24.6949 12.5232 24.0734 12.831 23.8792 13.4007C23.6583 14.0535 21.9947 14.579 20.5271 15.0429C17.6014 15.9668 13.5965 17.2321 13.2408 21.4601C13.1898 22.0618 13.6354 22.5912 14.2371 22.6407L14.2369 22.6408ZM13.3023 26.7477H15.5204L16.3415 54.261L18.5055 53.5184L17.641 24.5621H11.1787L10.283 56.338L12.4895 55.5816L13.3023 26.7477ZM28.968 19.9694H31.1745L32.0162 54.791L32.0405 54.7902L34.181 53.9341L33.3065 17.7866H26.8314L25.9205 57.2392L28.1262 56.3572L28.968 19.9694ZM95 90.8879V93.0716H0V90.8879H4.55559L4.55483 60.0129L23.7943 53.4167V59.668L39.6313 53.3338V59.7007H43.7833L43.7825 35.0908H69.8529V68.0249H81.2934V74.1192H88.0953L93.482 81.3902V87.4449H88.9369C88.8973 89.001 87.93 90.3263 86.5643 90.8855L95 90.8863L95 90.8879ZM86.7524 87.4473H83.4931C83.5434 88.3064 84.251 88.9912 85.1224 88.9912C85.993 88.9912 86.7021 88.3057 86.7524 87.4473H86.7524ZM81.2926 76.3052V85.2634H91.2975V82.1131L86.9956 76.3052H81.2926ZM80.2004 87.4473H71.6939C71.6542 89.0034 70.6869 90.3287 69.3212 90.8879H83.6806C82.3149 90.3288 81.3483 89.0019 81.3087 87.4473H80.2004ZM67.88 88.9912C68.7514 88.9912 69.4598 88.3057 69.51 87.4473H66.2492C66.2994 88.3057 67.0086 88.9912 67.88 88.9912H67.88ZM79.108 70.2112H61.5116V85.2635H79.108V70.2112ZM6.7388 90.8881H66.4375C65.0718 90.329 64.1036 89.0021 64.0648 87.4474H59.3271L59.3263 68.0274H67.6675V37.2753H45.9649V61.8833H37.4455V56.5569L21.6085 62.891V56.4738L6.73725 61.5711L6.7388 90.8881ZM21.3655 87.4322H23.5492V66.8041H21.3655V87.4322ZM37.2033 87.4322H39.387V66.8041H37.2033V87.4322ZM53.0464 87.4322H55.2301V66.8041H53.0464V87.4322ZM53.0464 61.9117H55.2301V57.0438H53.0464V61.9117ZM60.4202 57.0438H58.2365V61.9117H60.4202V57.0438ZM53.0464 54.8142H55.2301V49.9463H53.0464V54.8142ZM60.4202 49.9463H58.2365V54.8142H60.4202V49.9463ZM53.0464 47.6255H55.2301V42.7575H53.0464V47.6255ZM60.4202 42.7575H58.2365V47.6255H60.4202V42.7575ZM87.6586 80.192L86.187 78.0083H82.8585V80.192H87.6586Z" fill="#F9E745"/>
</svg>
