<svg width="10" height="9" viewBox="0 0 10 9" fill="none" xmlns="http://www.w3.org/2000/svg">
<path d="M3.17086 8.82971C6.87609 8.82971 8.90234 5.76249 8.90234 3.10269C8.90234 3.01557 8.90056 2.92885 8.89665 2.84252C9.28997 2.5584 9.63183 2.20384 9.90147 1.80022C9.54054 1.96053 9.15212 2.06845 8.74467 2.11711C9.16056 1.86792 9.47985 1.47372 9.63048 1.0038C9.24128 1.23435 8.81026 1.40192 8.35134 1.49239C7.98375 1.10115 7.46042 0.856445 6.88095 0.856445C5.76852 0.856445 4.86643 1.75787 4.86643 2.869C4.86643 3.02695 4.8841 3.18059 4.91866 3.32796C3.24446 3.24378 1.75989 2.44283 0.766342 1.22494C0.593343 1.52239 0.493589 1.86793 0.493589 2.23661C0.493589 2.93494 0.84922 3.55143 1.39001 3.91209C1.05952 3.90188 0.749061 3.81123 0.477709 3.66034C0.477412 3.66878 0.477411 3.67702 0.477411 3.68605C0.477411 4.66085 1.17177 5.47473 2.0935 5.65916C1.92423 5.70527 1.74614 5.72999 1.56233 5.72999C1.43273 5.72999 1.30646 5.71725 1.18373 5.69369C1.44018 6.49346 2.18384 7.07544 3.0655 7.0917C2.37605 7.63168 1.50754 7.95329 0.563601 7.95329C0.401205 7.95329 0.240774 7.94406 0.0830994 7.92543C0.974615 8.49642 2.03321 8.82958 3.17097 8.82958" fill="white"/>
</svg>
