<svg width="21" height="15" viewBox="0 0 21 15" fill="none" xmlns="http://www.w3.org/2000/svg">
<path d="M19.8 2.21918C19.6 1.32194 18.9 0.723784 18 0.424705C15.4 0.125626 12.7 -0.0737599 10.1 0.0259331C7.49998 0.0259331 4.80001 0.125626 2.20001 0.424705C1.30001 0.624091 0.700024 1.32194 0.400024 2.21918C0.100024 3.81427 0 5.40936 0 7.00444C0 8.59953 0.100024 10.2943 0.400024 11.8894C0.600024 12.7866 1.30001 13.3848 2.20001 13.6839C4.80001 13.983 7.49998 14.1823 10.1 14.0826C12.7 14.0826 15.4 13.983 18 13.6839C18.9 13.4845 19.5 12.7866 19.8 11.8894C20.1 10.2943 20.2 8.69922 20.2 7.00444C20.2 5.40936 20.1 3.81427 19.8 2.21918Z" fill="black"/>
<path d="M8.09961 10.0949L13.2996 7.10407L8.09961 4.11328V10.0949Z" fill="white"/>
</svg>
